<svg width="235" height="164" viewBox="0 0 235 164" fill="none" xmlns="http://www.w3.org/2000/svg">
<g clip-path="url(#clip0_437_2107)">
<path d="M131.772 114.154C131.666 159.681 90.1335 163.383 76.8527 162.894C55.122 161.92 40.6348 156.08 27.758 156.08C20.7163 156.08 13.0689 157.782 5.42139 161.192C7.05823 122.202 6.88286 90.9415 6.12821 69.0692C7.73848 68.8139 9.33281 68.4841 10.9218 68.1224C11.517 68.1224 12.1176 68.1011 12.7128 68.0692C12.75 68.1224 12.7819 68.1703 12.8191 68.2235C12.9466 68.4149 13.0742 68.5958 13.2017 68.782C13.207 68.7979 13.2124 68.8139 13.2177 68.8298C13.7225 70.0532 14.355 71.2128 15.0883 72.3192C14.7163 72.0001 14.153 72.5639 14.5038 72.9628C16.8049 75.6064 18.8775 78.4096 21.5985 80.6064C22.0396 80.9788 22.502 81.3192 22.9856 81.6384C23.1982 81.8564 23.4161 82.0692 23.6446 82.2766C23.5755 82.4575 23.6127 82.6703 23.8253 82.7873C24.1867 82.9841 24.548 83.1756 24.9147 83.3671C26.153 84.3564 27.5029 85.2447 28.8846 86.0426C28.8953 86.2022 28.9856 86.3671 29.1876 86.4469C29.5808 86.6011 29.9847 86.7447 30.3939 86.8777C30.4577 86.915 30.5215 86.9469 30.5852 86.9788C33.8111 88.6756 37.2761 90.0852 40.8687 90.9415C41.2673 91.0373 41.6765 90.5107 41.3045 90.2341C41.161 90.1277 41.0175 90.0267 40.874 89.9309C42.7713 90.4309 44.727 90.8777 46.6667 90.6649C47.1132 90.6756 47.5542 90.665 47.9953 90.6277C48.2451 90.6064 48.4258 90.4203 48.4418 90.2128C48.6224 90.2341 48.8085 90.2554 48.9891 90.2713C49.1645 90.3086 49.3452 90.3352 49.5206 90.3671C49.5844 96.3777 49.6588 101.846 49.7491 107.059C49.8288 111.66 50.6685 115.894 52.0981 119.697C55.3612 132.952 67.3186 142.787 81.572 142.787C98.3337 142.787 111.928 129.186 111.928 112.404C111.928 95.6224 98.339 82.0213 81.572 82.0213C80.5091 82.0213 79.4568 82.0745 78.4205 82.1862C76.045 81.4415 73.4781 80.7128 70.7093 79.9947C70.789 79.883 70.8687 79.7767 70.9537 79.665L72.8403 77.8937C72.9573 77.782 72.9892 77.6596 72.9626 77.5426C73.4196 77.0798 73.882 76.6224 74.339 76.1596C74.3443 76.1543 74.3496 76.149 74.355 76.1437C74.355 76.1437 74.3603 76.133 74.3656 76.133C74.9821 75.516 75.5985 74.899 76.2256 74.282C76.2947 74.2128 76.3372 74.133 76.3479 74.0532C76.401 74.0054 76.4542 73.9522 76.5073 73.9043L84.8297 68.0692C123.689 67.0107 131.82 93.6011 131.772 114.16V114.154Z" fill="black"/>
<path d="M139.967 115.319C139.967 88.7022 157.637 67.0054 191.331 67.0054C220.475 67.0054 232.13 83.2288 232.13 96.7235C232.13 113.314 214.459 127.718 178.762 125.346C182.769 133.734 191.15 138.835 205.903 138.835C213.917 138.835 223.754 137.739 234.5 131.543C227.942 155.606 210.638 163.995 190.236 163.995C157.993 163.995 139.961 142.298 139.961 115.319H139.967ZM175.664 112.404C188.78 112.223 197.341 105.112 197.341 93.6277C197.341 87.0639 194.429 81.0479 188.418 81.0479C179.857 81.0479 175.488 93.0798 175.488 107.846C175.488 109.303 175.488 110.947 175.669 112.404H175.664Z" fill="black"/>
<path fill-rule="evenodd" clip-rule="evenodd" d="M98.4612 48.0427C98.3708 43.9629 97.7863 40.0055 96.8456 36.4044C94.943 29.1012 91.7544 22.4204 86.8917 16.6172C84.4789 13.7342 81.6941 11.0268 78.3142 8.59592C74.6153 5.93634 69.8057 3.43103 64.4275 1.84592C63.8589 1.68102 63.2902 1.51613 62.7322 1.37783C54.9625 -0.526422 48.0431 -0.297699 41.6764 1.12783C34.4063 2.76081 27.827 5.90443 21.7898 10.5002C18.8297 12.7502 15.9705 15.5161 13.3452 18.6438C10.7145 21.7768 8.25393 25.4949 6.17067 29.7821C4.03426 34.1757 2.29644 39.548 1.44613 44.0746C0.595822 48.6066 0.367302 52.8938 0.56925 56.9151C0.670224 58.8938 0.909374 60.8512 1.08475 62.83C1.61088 68.7395 2.29644 74.6066 2.97669 80.4417C4.79954 96.08 6.52142 112.442 6.36199 127.755C6.14409 148.128 5.42665 156.851 5.42665 161.24C5.45322 161.25 13.0688 153.532 13.0688 153.532C20.4293 146.505 27.2477 139.564 33.168 134.633C37.6056 130.942 41.974 127.069 46.3053 123.181C47.7561 121.878 49.1857 120.548 50.6472 119.255C53.5701 116.67 56.3815 113.942 59.2566 111.266C62.1158 108.601 64.943 105.862 67.7969 103.112C72.0537 99.0002 76.3213 94.8246 80.4771 90.564C81.8801 89.1278 83.315 87.7342 84.6437 86.2289C87.3434 83.1704 89.8518 79.6278 92.0414 75.431C93.1414 73.33 94.2096 70.9842 95.0865 68.5268C97.8022 60.8991 98.5994 54.2289 98.4612 48.0427ZM49.5471 81.0906C31.8607 81.0906 17.5223 66.7395 17.5223 49.0427C17.5223 31.3459 31.8607 16.9895 49.5471 16.9895C67.2336 16.9895 81.5719 31.3406 81.5719 49.0427C81.5719 66.7449 67.2336 81.0906 49.5471 81.0906Z" fill="#8F0000"/>
</g>
<defs>
<clipPath id="clip0_437_2107">
<rect width="234" height="164" fill="white" transform="translate(0.5)"/>
</clipPath>
</defs>
</svg>
